<svg width="37" height="37" viewBox="0 0 37 37" fill="none" xmlns="http://www.w3.org/2000/svg">
<g clip-path="url(#clip0)">
<path d="M26.1796 17.5139C23.5277 17.5139 20.9066 18.7161 19.1859 20.9994C16.2695 24.8704 17.0293 30.4047 20.8799 33.3366C24.7313 36.2678 30.2362 35.5037 33.1529 31.6333C34.5656 29.7578 35.1676 27.4422 34.8477 25.1122C34.5275 22.782 33.3239 20.7165 31.4588 19.2965C29.8797 18.0946 28.0222 17.5139 26.1796 17.5139V17.5139ZM26.1488 36.2173C24.0165 36.2173 21.9527 35.5242 20.2236 34.2079C15.895 30.9124 15.0406 24.6912 18.3191 20.3396C19.9069 18.2317 22.2168 16.8719 24.8223 16.5104C27.4279 16.1467 30.0178 16.828 32.1152 18.4252C34.2122 20.0216 35.5653 22.3432 35.925 24.9626C36.2846 27.5817 35.6082 30.1851 34.0197 32.2931C32.4319 34.401 30.122 35.7608 27.5165 36.1227C27.0588 36.186 26.6023 36.2173 26.1488 36.2173" fill="#626065"/>
<path d="M30.8744 29.8985C28.9065 32.5106 25.2043 33.0242 22.6061 31.046C20.0075 29.0676 19.4962 25.3465 21.4645 22.7344C23.4324 20.1226 27.1342 19.6087 29.7328 21.5871C32.3314 23.5653 32.8423 27.2864 30.8744 29.8985" fill="#D8B518"/>
<path d="M26.3393 1.09319C26.1299 1.09319 25.9184 1.1078 25.7069 1.13738C24.5026 1.30405 23.435 1.93316 22.7012 2.9071C21.967 3.88138 21.6544 5.08497 21.8206 6.29552C21.9867 7.50607 22.6122 8.57917 23.5811 9.31719C24.5504 10.0545 25.7467 10.3705 26.952 10.2017C28.1566 10.0347 29.2242 9.40592 29.958 8.43198C30.6922 7.4577 31.0048 6.25446 30.8383 5.04391C30.6725 3.83336 30.047 2.75991 29.0777 2.02189C28.2785 1.41366 27.3245 1.09319 26.3393 1.09319V1.09319ZM26.3175 11.3392C25.0966 11.3392 23.9152 10.9422 22.9248 10.1885C21.724 9.27439 20.949 7.94484 20.743 6.44479C20.5374 4.94509 20.9247 3.45409 21.8341 2.24737C22.7434 1.0403 24.0661 0.261221 25.5584 0.054186C27.0493 -0.152502 28.5336 0.236167 29.7344 1.1506C30.9352 2.06504 31.7099 3.39459 31.9162 4.89429C32.1219 6.39434 31.7345 7.88499 30.8252 9.09206C29.9155 10.2988 28.5928 11.0779 27.1008 11.2849C26.8388 11.3211 26.5771 11.3392 26.3175 11.3392" fill="#626065"/>
<path d="M25.8874 2.45089C27.6559 2.20558 29.2874 3.44744 29.5314 5.22516C29.7758 7.00288 28.54 8.64281 26.7715 8.88812C25.003 9.13378 23.3716 7.89156 23.1275 6.11384C22.8835 4.33647 24.1189 2.6962 25.8874 2.45089" fill="#2E73B8"/>
<path d="M7.80804 2.27677C7.50308 2.27677 7.19569 2.29765 6.88519 2.34079C3.21766 2.84986 0.645372 6.26333 1.15145 9.95064C1.39688 11.7364 2.3194 13.3196 3.74902 14.4083C5.17899 15.4968 6.94473 15.9609 8.7219 15.7135C12.3894 15.2048 14.9617 11.791 14.4553 8.10403C13.9921 4.72883 11.1066 2.27677 7.80804 2.27677V2.27677ZM7.79765 16.8708C3.96535 16.8708 0.612813 14.0218 0.0738531 10.0999C-0.514267 5.81585 2.47479 1.84947 6.73632 1.2576C10.9992 0.668157 14.9444 3.67034 15.5329 7.95441C16.121 12.2385 13.1319 16.2052 8.87039 16.7967C8.51004 16.8465 8.15177 16.8708 7.79765 16.8708" fill="#626065"/>
<path d="M7.17373 4.44209C9.69306 4.09239 12.0171 5.86175 12.3647 8.3942C12.7126 10.9263 10.9524 13.2628 8.43339 13.6122C5.91407 13.9619 3.58997 12.1925 3.24209 9.66007C2.8942 7.12797 4.6544 4.79178 7.17373 4.44209" fill="#CC3B33"/>
<path d="M5.75936 22.8542C5.54994 22.8542 5.33878 22.8689 5.12728 22.8984C3.923 23.0651 2.8558 23.6942 2.1216 24.6682C1.38775 25.6424 1.07517 26.846 1.24133 28.0566C1.40748 29.2671 2.03299 30.3406 3.00188 31.0782C3.97112 31.8163 5.16743 32.1312 6.37275 31.9631C7.57737 31.7961 8.64457 31.1673 9.37877 30.1934C10.1126 29.2191 10.4252 28.0155 10.259 26.805C10.0929 25.5944 9.4674 24.521 8.49851 23.7833C7.69888 23.1747 6.74487 22.8542 5.75936 22.8542V22.8542ZM5.73856 33.1006C4.51732 33.1006 3.33589 32.7036 2.34553 31.9495C1.14472 31.0354 0.369672 29.7059 0.163712 28.2058C-0.0422479 26.7061 0.345099 25.2155 1.25445 24.0084C2.1638 22.8014 3.48647 22.0223 4.97875 21.8152C6.4693 21.6075 7.95396 21.9972 9.15478 22.912C10.3556 23.8261 11.1303 25.1556 11.3366 26.6553C11.5426 28.1554 11.1552 29.646 10.2459 30.8531C9.33616 32.0602 8.01385 32.8393 6.52157 33.0463C6.25987 33.0825 5.99818 33.1006 5.73856 33.1006" fill="#626065"/>
<path d="M8.95217 26.9864C8.70813 25.2087 7.07635 23.9668 5.30818 24.2121C3.53967 24.4575 2.30389 26.0974 2.54827 27.8751C2.79231 29.6528 4.42375 30.895 6.19226 30.6494C7.96078 30.4041 9.19621 28.7641 8.95217 26.9864" fill="#2E73B8"/>
<path d="M11.0427 28.9643L11.0164 27.871L17.0602 27.7249L17.0866 28.8181L11.0427 28.9643Z" fill="#626065"/>
<path d="M6.33673 22.3681L5.25568 22.2498L5.90438 16.2542L6.98577 16.3725L6.33673 22.3681Z" fill="#626065"/>
<path d="M15.1322 8.558L14.856 7.50056L21.1436 5.84149L21.4198 6.89894L15.1322 8.558Z" fill="#626065"/>
<path d="M27.2845 16.8118L26.1983 16.7599L26.4835 10.7173L27.5694 10.7694L27.2845 16.8118Z" fill="#626065"/>
</g>
<defs>
<clipPath id="clip0">
<rect width="36.0193" height="36.2173" fill="white"/>
</clipPath>
</defs>
</svg>
