
<svg width="227px" height="39px" viewBox="0 0 227 39" version="1.1" xmlns="http://www.w3.org/2000/svg" xmlns:xlink="http://www.w3.org/1999/xlink">
    <g id="Page-1" stroke="none" stroke-width="1" fill="none" fill-rule="evenodd">
        <g id="Logo" transform="translate(-57.000000, -50.000000)">
            <g id="Group" transform="translate(57.000000, 50.000000)">
                <g id="react-atomicus-logo" fill-rule="nonzero">
                    <path d="M28.5077627,19.1655927 C25.6799892,19.1655927 22.8850583,20.4404905 21.0502418,22.8618632 C17.9404266,26.9669452 18.7506164,32.8359081 22.8565875,35.9451021 C26.9634117,39.0535538 32.8333957,38.2432481 35.9435307,34.1388024 C37.4499207,32.1498896 38.0918453,29.6942637 37.7507296,27.223367 C37.409294,24.7522583 36.1258714,22.5618561 34.1370783,21.0559877 C32.4532527,19.781408 30.4725636,19.1655927 28.5077627,19.1655927 L28.5077627,19.1655927 Z M28.4749201,39 C26.2012063,39 24.0005355,38.2649878 22.1567618,36.8690902 C17.5410899,33.3743091 16.6300262,26.7769089 20.1259557,22.1621647 C21.8190584,19.9267985 24.2821505,18.4847705 27.0604468,18.1014103 C29.8388497,17.7157172 32.6005115,18.4382158 34.8370106,20.1319996 C37.0730833,21.824935 38.5159207,24.2869237 38.8994759,27.0647206 C39.2829245,29.8421994 38.5616658,32.6030288 36.8678167,34.838501 C35.1747141,37.0738671 32.711622,38.5158951 29.9333257,38.8996795 C29.4452711,38.9668073 28.9584961,39 28.4749201,39 L28.4749201,39 Z" id="Shape" fill="#626065"></path>
                    <path d="M33.681363,32.4241971 C31.5142372,35.2858495 27.4372346,35.8485173 24.5759986,33.6813259 C21.7143221,31.5139154 21.1512592,27.4373124 23.3188256,24.5756601 C25.4859514,21.7143364 29.5625134,21.1513399 32.4241899,23.3187504 C35.2858665,25.4859418 35.8484888,29.5625448 33.681363,32.4241971" id="Path" fill="#D8B518"></path>
                    <path d="M28.010299,1.15689643 C27.7875514,1.15689643 27.5625699,1.17235784 27.3375885,1.20366164 C26.0565239,1.38004445 24.9208728,2.04581629 24.1402989,3.07651334 C23.3592995,4.1075702 23.0267737,5.38130027 23.2035676,6.66239594 C23.3802552,7.94349161 24.0456259,9.07912728 25.0762856,9.86015592 C26.1073708,10.6404332 27.3799254,10.9748483 28.6620538,10.7962114 C29.9434375,10.6194793 31.0790885,9.95405672 31.8596625,8.92335967 C32.6406619,7.89230281 32.9731877,6.61894314 32.7960746,5.33784747 C32.6197062,4.0567518 31.9543355,2.92074574 30.9232503,2.13971709 C30.0731076,1.49604205 29.0582977,1.15689643 28.010299,1.15689643 L28.010299,1.15689643 Z M27.9871094,12 C26.6883867,12 25.4316818,11.5798645 24.3781516,10.7822421 C23.1008101,9.81486172 22.27641,8.40783124 22.0572791,6.82036475 C21.8385738,5.23326866 22.2505611,3.65537957 23.2179281,2.3783371 C24.1851888,1.10092423 25.5922005,0.276443846 27.1796228,0.0573437327 C28.7655559,-0.161389158 30.3444683,0.249929806 31.6218098,1.21765204 C32.8991513,2.18538169 33.7232322,3.59241217 33.9426822,5.17950826 C34.161494,6.76697474 33.7494003,8.34449344 32.7821396,9.62190631 C31.8144534,10.8989699 30.4074418,11.7234726 28.8203386,11.9425356 C28.5416382,11.9808452 28.2632569,12 27.9871094,12 L27.9871094,12 Z" id="Shape" fill="#626065"></path>
                    <path d="M28.0213565,3.03328586 C29.9360707,2.76906979 31.702458,4.1066401 31.9666312,6.02136921 C32.2312375,7.93609833 30.8932653,9.70241795 28.9785512,9.96663402 C27.0638371,10.2312271 25.2975579,8.89326901 25.0332765,6.9785399 C24.7691033,5.06418776 26.1066424,3.29750193 28.0213565,3.03328586" id="Path" fill="#2E73B8"></path>
                    <path d="M8.50508278,2.18453444 C8.17289826,2.18453444 7.83806681,2.20716197 7.49984772,2.25391254 C3.50490841,2.80558874 0.702986008,6.50474636 1.25424282,10.5006628 C1.52158295,12.4358805 2.52645855,14.1515852 4.08370421,15.331403 C5.6413311,16.5110042 7.564703,17.0139467 9.50052528,16.7458407 C13.4954319,16.1945655 16.2973674,12.4950502 15.7457598,8.49950226 C15.2412088,4.84181762 12.0981132,2.18453444 8.50508278,2.18453444 L8.50508278,2.18453444 Z M8.49376524,18 C4.31934651,18 0.667520387,14.9125552 0.0804462274,10.662415 C-0.560176783,6.01981488 2.6957206,1.72147191 7.33768773,1.08006582 C11.9811254,0.441289868 16.278523,3.69473815 16.9195598,8.33735993 C17.5601609,12.9800034 14.3042167,17.2786931 9.66227135,17.9196983 C9.26975203,17.9736662 8.87949839,18 8.49376524,18 L8.49376524,18 Z" id="Shape" fill="#626065"></path>
                    <path d="M7.31634614,5.04760702 C10.0516835,4.66989029 12.5749868,6.58100516 12.95239,9.31634611 C13.330119,12.051309 11.4189994,14.5750012 8.68400941,14.9523939 C5.94868286,15.3301106 3.42531448,13.4189525 3.04760724,10.6836331 C2.66988914,7.94867024 4.58100873,5.42531294 7.31634614,5.04760702" id="Path" fill="#CC3B33"></path>
                    <path d="M6.00978349,25.1571958 C5.78701411,25.1571958 5.56239382,25.1727515 5.33741186,25.2039685 C4.05636561,25.3803715 2.92113746,26.0460891 2.14013624,27.0767819 C1.35950733,28.1076864 1.02700207,29.3813434 1.20375385,30.6624078 C1.38049501,31.9433665 2.04587784,33.0793508 3.07652926,33.8598837 C4.107553,34.6409458 5.3801212,34.9741749 6.66227374,34.7962904 C7.94368166,34.61957 9.0789098,33.9541699 9.85991103,32.9235829 C10.6405187,31.8925726 10.9730452,30.6189156 10.7962509,29.3379569 C10.6195629,28.0568925 9.9541907,26.921014 8.92353928,26.1403752 C8.07293725,25.4963509 7.05811435,25.1571958 6.00978349,25.1571958 L6.00978349,25.1571958 Z M5.9876576,36 C4.68857025,36 3.43183057,35.5798921 2.37834055,34.7818988 C1.1009855,33.8145925 0.276532437,32.4077074 0.0574436169,30.8202922 C-0.161645097,29.2333004 0.250393043,27.6559382 1.21771018,26.3785774 C2.18502626,25.1013225 3.59200922,24.2768741 5.17941388,24.0577196 C6.76497827,23.8379301 8.3442772,24.2503131 9.62164289,25.2183601 C10.8990086,26.1856665 11.7230915,27.5925516 11.942542,29.1795435 C12.1616733,30.7669586 11.7495787,32.3443208 10.7823158,33.6216815 C9.81458487,34.8990423 8.40798486,35.7234907 6.8205802,35.9425394 C6.54219826,35.9808465 6.26382696,36 5.9876576,36 L5.9876576,36 Z" id="Shape" fill="#626065"></path>
                    <path d="M9.9667141,29.0213734 C9.7024978,27.1066815 7.93580847,25.7690791 6.02145294,26.0332822 C4.1067293,26.2975931 2.76877973,28.0638659 3.03336414,29.9785578 C3.29758043,31.8932496 5.06390165,33.2311752 6.97862529,32.9666489 C8.89335976,32.7024458 10.2309304,30.9360653 9.9667141,29.0213734" id="Path" fill="#2E73B8"></path>
                    <polygon id="Path" fill="#626065" points="12.0303285 31 12 30.1178796 18.9695562 30 19 30.8820397"></polygon>
                    <polygon id="Path" fill="#626065" points="7.24970377 24 6 23.8645545 6.74990318 17 8 17.1354455"></polygon>
                    <polygon id="Path" fill="#626065" points="16.294555 9 16 7.8322075 22.705445 6 23 7.16780354"></polygon>
                    <polygon id="Path" fill="#626065" points="29.7922106 18 29 17.9403889 29.2080082 11 30 11.0598408"></polygon>
                </g>
                <text id="react-atomicus" font-family="OpenSans-Regular, Open Sans" font-size="24" font-weight="normal" letter-spacing="1" fill="#394046">
                    <tspan x="49" y="26">react-atomicu</tspan>
                    <tspan x="216.617188" y="26">s</tspan>
                </text>
            </g>
        </g>
    </g>
</svg>